<?xml version="1.0" encoding="UTF-8"?>
<!DOCTYPE svg PUBLIC "-//W3C//DTD SVG 1.1//EN" "http://www.w3.org/Graphics/SVG/1.1/DTD/svg11.dtd">
<!-- Creator: CorelDRAW X8 -->
<svg xmlns="http://www.w3.org/2000/svg" xml:space="preserve" width="595px" height="75px" version="1.1" style="shape-rendering:geometricPrecision; text-rendering:geometricPrecision; image-rendering:optimizeQuality; fill-rule:evenodd; clip-rule:evenodd"
viewBox="0 0 24983 3144"
 xmlns:xlink="http://www.w3.org/1999/xlink">
 <defs>
  <style type="text/css">
   <![CDATA[
    .fil1 {fill:#B2B3B3;fill-rule:nonzero}
    .fil0 {fill:#E31E24;fill-rule:nonzero}
   ]]>
  </style>
 </defs>
 <g id="__x0023_Layer_x0020_1">
  <metadata id="CorelCorpID_0Corel-Layer"/>
  <g id="_2957673026448">
   <path class="fil0" d="M0 720l563 -204 0 285c137,-185 326,-322 619,-322 463,0 904,363 904,1033 0,664 -434,1027 -904,1027 -300,0 -486,-137 -619,-297l-5 902 -558 0 0 -2424zm1523 785l0 0c0,-330 -223,-548 -486,-548 -263,0 -481,218 -481,555 0,330 218,549 481,549 263,0 486,-215 486,-556z"/>
   <path class="fil0" d="M4540 516l563 0 0 323c115,-274 300,-341 634,-326l0 484 -30 0c-374,0 -604,297 -604,771l0 734 -563 0 0 -1986z"/>
   <path class="fil0" d="M6194 1938l0 -940 -237 0 0 -482 237 0 0 -312 563 -204 0 516 467 0 0 482 -467 0 0 848c0,130 56,192 182,192 103,0 196,-25 277,-70l0 452c-118,70 -255,115 -444,115 -345,0 -578,-137 -578,-597z"/>
   <path class="fil0" d="M7467 516l563 0 0 281c129,-166 300,-318 585,-318 259,0 456,115 560,315 174,-204 381,-315 652,-315 418,0 670,252 670,730l0 1293 -563 0 0 -1108c0,-267 -119,-404 -330,-404 -211,0 -341,137 -341,404l0 1108 -563 0 0 -1108c0,-267 -118,-404 -329,-404 -212,0 -341,137 -341,404l0 1108 -563 0 0 -1986z"/>
   <path class="fil0" d="M12956 516l563 0 0 281c130,-166 297,-318 582,-318 426,0 674,281 674,737l0 1286 -563 0 0 -1108c0,-267 -126,-404 -340,-404 -215,0 -353,137 -353,404l0 1108 -563 0 0 -1986z"/>
   <path class="fil0" d="M14995 1512c0,-566 404,-1033 982,-1033 663,0 967,515 967,1078 0,44 -4,96 -8,148l-1382 0c56,256 234,389 486,389 188,0 326,-59 481,-204 0,0 113,308 162,445 -169,134 -385,211 -651,211 -596,0 -1037,-419 -1037,-1034zm1400 -159l0 0c-33,-252 -181,-422 -418,-422 -234,0 -386,167 -430,422l848 0z"/>
   <path class="fil1" d="M17808 1512c0,-566 433,-1033 1041,-1033 277,0 474,77 634,201 -43,111 -175,481 -175,481 -122,-115 -241,-197 -463,-197 -282,0 -482,248 -482,548 0,304 197,549 504,549 189,0 319,-82 456,-211 0,0 145,402 175,481 -162,130 -361,215 -657,215 -596,0 -1033,-459 -1033,-1034z"/>
   <path class="fil1" d="M21952 516l563 0 0 281c130,-166 301,-318 586,-318 259,0 456,115 559,315 174,-204 382,-315 652,-315 419,0 671,252 671,730l0 1293 -563 0 0 -1108c0,-267 -119,-404 -330,-404 -211,0 -341,137 -341,404l0 1108 -563 0 0 -1108c0,-267 -119,-404 -330,-404 -211,0 -341,137 -341,404l0 1108 -563 0 0 -1986z"/>
   <path class="fil1" d="M17670 2230c0,174 -132,315 -296,315 -163,0 -296,-141 -296,-315 0,-173 133,-314 296,-314 164,0 296,141 296,314z"/>
   <path class="fil0" d="M3260 2552c-577,0 -1046,-469 -1046,-1046 0,-577 469,-1046 1046,-1046 577,0 1047,469 1047,1046 0,577 -470,1046 -1047,1046zm0 -1544l0 0c-274,0 -498,224 -498,498 0,275 224,498 498,498 275,0 498,-223 498,-498 0,-274 -223,-498 -498,-498z"/>
   <path class="fil0" d="M11731 2552c-577,0 -1046,-469 -1046,-1046 0,-577 469,-1046 1046,-1046 577,0 1047,469 1047,1046 0,577 -470,1046 -1047,1046zm0 -1544l0 0c-274,0 -498,224 -498,498 0,275 224,498 498,498 275,0 498,-223 498,-498 0,-274 -223,-498 -498,-498z"/>
   <path class="fil1" d="M20650 2552c-577,0 -1047,-469 -1047,-1046 0,-577 470,-1046 1047,-1046 577,0 1046,469 1046,1046 0,577 -469,1046 -1046,1046zm0 -1544l0 0c-275,0 -498,224 -498,498 0,275 223,498 498,498 274,0 497,-223 497,-498 0,-274 -223,-498 -497,-498z"/>
  </g>
 </g>
</svg>
